<svg width="148" height="148" viewBox="0 0 148 148" fill="none" xmlns="http://www.w3.org/2000/svg">
<rect width="148" height="148" rx="74" fill="white"/>
<path fill-rule="evenodd" clip-rule="evenodd" d="M16 0C7.16344 0 0 7.16344 0 16V132C0 140.837 7.16344 148 16 148H132C140.837 148 148 140.837 148 132V16C148 7.16344 140.837 0 132 0H16ZM101.679 42.8019L107.524 30.0732L73.7029 30.0732H73.4459C64.4417 30.0946 57.2898 32.3374 52.0597 36.8765C46.7761 41.4103 44.1048 47.2822 44.1369 54.5297C44.1369 60.8834 45.9892 65.8882 49.7471 69.6243C53.489 73.3391 58.8744 76.0636 65.9192 77.814L79.1257 80.9774C83.1781 81.9302 86.1652 83.3166 88.1566 85.2061C90.1212 87.0688 91.0741 89.6274 91.1062 92.9407C91.1062 96.7518 89.5377 99.7279 86.4328 101.928C83.3226 104.112 78.7777 105.172 72.8463 105.204C66.9952 105.204 62.4503 103.78 59.2652 100.98C56.0639 98.1703 54.3295 94.3163 54.0993 89.5096H40.4753C40.7162 98.1703 43.6123 105.043 49.2386 110.214C54.8434 115.358 62.6966 117.911 72.8463 117.927C79.04 117.927 84.5378 116.899 89.4199 114.903C94.27 112.885 98.0494 109.973 100.833 106.178C103.59 102.383 104.955 97.9455 104.971 92.9354C104.971 86.4854 103.146 81.2343 99.5161 77.2412C95.8813 73.2267 90.3246 70.2399 82.9211 68.3718L69.6558 65.0692C65.5338 64.0308 62.5039 62.6658 60.6142 61.0654C58.7138 59.4381 57.7556 57.099 57.7609 54.139C57.7609 50.7186 59.1153 47.9727 61.8294 45.9012C64.5434 43.8351 68.4137 42.7859 73.4456 42.7966V42.8019H73.7765L73.7778 42.802H100.142L100.142 42.8019H101.679Z" fill="#0A0AF4"/>
</svg>
